#tb 0: 1/48000
#media_type 0: audio
#codec_id 0: s337m_24
#sample_rate 0: 48000
#channel_layout_name 0: 7.1
0,          0,          0,       30,      180, 0x00000000
0,         30,         30,     1920,    11520, 0x985f72f4
0,       1920,       1920,     1920,    11520, 0xbc1b27cc
0,       3840,       3840,     1920,    11520, 0x08db3200
0,       5760,       5760,     1920,    11520, 0x135b7c07
0,       7680,       7680,     1920,    11520, 0x0b4647d1
0,       9600,       9600,     1920,    11520, 0xd0fa478c
0,      11520,      11520,     1920,    11520, 0x0a125432
0,      13440,      13440,     1920,    11520, 0xe6739bef
0,      15360,      15360,     1920,    11520, 0x8943609f
0,      17280,      17280,     1920,    11520, 0x6dab62da
0,      19200,      19200,     1920,    11520, 0x76d605ec
0,      21120,      21120,     1920,    11520, 0xeec3726a
0,      23040,      23040,     1920,    11520, 0x46227c58
0,      24960,      24960,     1920,    11520, 0xcbee55de
0,      26880,      26880,     1920,    11520, 0x04107248
0,      28800,      28800,     1920,    11520, 0x419e3b51
0,      30720,      30720,     1920,    11520, 0x71f5a354
0,      32640,      32640,     1920,    11520, 0xb98478a5
0,      34560,      34560,     1920,    11520, 0xf1bd275d
0,      36480,      36480,     1920,    11520, 0x73aa3685
0,      38400,      38400,     1920,    11520, 0x48693025
0,      40320,      40320,     1920,    11520, 0x246708b0
0,      42240,      42240,     1920,    11520, 0x9a098b2f
0,      44160,      44160,     1920,    11520, 0x559c6ca0
0,      46080,      46080,     1920,    11520, 0x6acb4b66
0,      48000,      48000,     1920,    11520, 0x5e48ca15
0,      49920,      49920,     1920,    11520, 0xea18fb15
0,      51840,      51840,     1920,    11520, 0xa6540862
0,      53760,      53760,     1920,    11520, 0x6d045b16
0,      55680,      55680,     1920,    11520, 0x0e8042a1
0,      57600,      57600,     1920,    11520, 0xe47f6275
0,      59520,      59520,     1920,    11520, 0x00794df6
0,      61440,      61440,     1920,    11520, 0x4ff33b97
0,      63360,      63360,     1920,    11520, 0xc49e3d91
0,      65280,      65280,     1920,    11520, 0xa07e1876
0,      67200,      67200,     1920,    11520, 0x10ee915e
0,      69120,      69120,     1920,    11520, 0x8fac8065
0,      71040,      71040,     1920,    11520, 0x3a809cae
0,      72960,      72960,     1920,    11520, 0xbe443fcf
0,      74880,      74880,     1920,    11520, 0x32e7293d
0,      76800,      76800,     1920,    11520, 0x1b61224c
0,      78720,      78720,     1920,    11520, 0x182cc98c
0,      80640,      80640,     1920,    11520, 0xdc145074
0,      82560,      82560,     1920,    11520, 0xfd3b48d5
0,      84480,      84480,     1920,    11520, 0xa17839e7
0,      86400,      86400,     1920,    11520, 0x5fda3e6d
0,      88320,      88320,     1920,    11520, 0xb2c8da01
0,      90240,      90240,     1920,    11520, 0x7c8f55ea
0,      92160,      92160,     1920,    11520, 0xbe001fed
0,      94080,      94080,     1920,    11340, 0x180ccc36
